# xmcd
#
# Track frame offsets: 
#        150
#        26070
#        43915
#        59800
#        70797
#        83700
#        104640
#        125362
#        138187
#        148310
#        170075
#        182022
#        197587
#        217995
#
# Disc length: 3037 seconds
#
# Revision: 1
# Processed by: cddbd v1.5.2PL0 Copyright (c) Steve Scherf et al.
# Submitted via: ExactAudioCopyFreeDBPlugin 1.0
#
DISCID=d90bdb0e
DTITLE=Buddy Johnson - Buddy Johnson at the Savoy Ballroom (New York C
DTITLE=ity, 1945-46)
DYEAR=2003
DGENRE=Rhythm and Blues
TTITLE0=(Theme) Walk 'Em, Opus #2
TTITLE1=Since I Fell for You
TTITLE2=St. Louis Blues
TTITLE3=Waitin' for the Train to Come In
TTITLE4=Night Shift
TTITLE5=Jodi
TTITLE6=One O'Clock Boogie
TTITLE7=The Other Side of the Rainbow
TTITLE8=Exactly Like You
TTITLE9=One for a Nickel
TTITLE10=Gee, It's Good to Hold You
TTITLE11=In There
TTITLE12=Traffic Jam
TTITLE13=(Theme) If You Never Return
EXTD=
EXTT0=
EXTT1=
EXTT2=
EXTT3=
EXTT4=
EXTT5=
EXTT6=
EXTT7=
EXTT8=
EXTT9=
EXTT10=
EXTT11=
EXTT12=
EXTT13=
PLAYORDER=
